<svg width="19" height="17" viewBox="0 0 19 17" fill="none" xmlns="http://www.w3.org/2000/svg">
<rect x="0.495996" y="0.908838" width="17.3" height="15.1824" rx="4.65" fill="white" stroke="#6E8092" stroke-width="0.7"/>
<path d="M12.5746 9.57143H9.71742V12.4286C9.71742 12.7429 9.46028 13 9.146 13C8.83171 13 8.57457 12.7429 8.57457 12.4286V9.57143H5.71742C5.40314 9.57143 5.146 9.31429 5.146 9C5.146 8.68571 5.40314 8.42857 5.71742 8.42857H8.57457V5.57143C8.57457 5.25714 8.83171 5 9.146 5C9.46028 5 9.71742 5.25714 9.71742 5.57143V8.42857H12.5746C12.8889 8.42857 13.146 8.68571 13.146 9C13.146 9.31429 12.8889 9.57143 12.5746 9.57143Z" fill="#001F3F"/>
</svg>
