<svg width="15" height="16" viewBox="0 0 15 16" fill="none" xmlns="http://www.w3.org/2000/svg">
<path d="M2.56655 1.76171L2.47223 1.38235H2.08132H0.937531C0.822118 1.38235 0.711039 1.33635 0.628835 1.25382C0.546566 1.17123 0.5 1.05881 0.5 0.941176C0.5 0.823544 0.546566 0.71112 0.628835 0.628531C0.711039 0.546008 0.822118 0.5 0.937531 0.5H2.81258C2.81259 0.5 2.81259 0.5 2.81259 0.5C2.90963 0.500005 3.00411 0.532545 3.08101 0.592797L3.38937 0.199205L3.08101 0.592797C3.1579 0.653033 3.21288 0.737598 3.23682 0.8333C3.23684 0.833376 3.23686 0.833451 3.23688 0.833527L3.52738 2.0029L3.62165 2.38235H4.01263H14.0627C14.1369 2.38239 14.2099 2.40146 14.2749 2.43787C14.34 2.47428 14.3948 2.5269 14.4342 2.59091C14.4736 2.65492 14.4962 2.72814 14.4996 2.80359C14.5029 2.87905 14.4871 2.95404 14.4535 3.02143L11.641 8.66838L11.6409 8.66849C11.6044 8.7419 11.5483 8.80338 11.4793 8.84624C11.4103 8.8891 11.3309 8.91172 11.2501 8.91177H5.07579H4.86812L4.72156 9.0589L3.78402 10.0001L2.93446 10.8529H4.13826H12.1879C12.3033 10.8529 12.4144 10.8989 12.4966 10.9815C12.5789 11.0641 12.6254 11.1765 12.6254 11.2941C12.6254 11.4118 12.5789 11.5242 12.4966 11.6068C12.4144 11.6893 12.3033 11.7353 12.1879 11.7353H4.13826C2.91672 11.7353 2.29665 10.2486 3.16683 9.37499L4.00385 8.53565L4.20324 8.33571L4.13498 8.06172L2.86181 2.95113L2.86184 2.95113L2.86054 2.94614C2.85895 2.94 2.85748 2.93383 2.85615 2.92761L2.85445 2.91969L2.85249 2.91183L2.56655 1.76171ZM12.6254 14.5882C12.6254 14.8307 12.5295 15.0628 12.3593 15.2336C12.1892 15.4044 11.9589 15.5 11.7191 15.5C11.4794 15.5 11.2491 15.4044 11.079 15.2336C10.9088 15.0628 10.8128 14.8307 10.8128 14.5882C10.8128 14.3458 10.9088 14.1137 11.079 13.9428C11.2491 13.7721 11.4794 13.6765 11.7191 13.6765C11.9589 13.6765 12.1892 13.7721 12.3593 13.9428C12.5295 14.1137 12.6254 14.3458 12.6254 14.5882ZM4.85905 15.2336C4.68894 15.4044 4.45863 15.5 4.21889 15.5C3.97915 15.5 3.74884 15.4044 3.57873 15.2336C3.40855 15.0628 3.31259 14.8307 3.31259 14.5882C3.31259 14.3458 3.40855 14.1137 3.57873 13.9428C3.74884 13.7721 3.97915 13.6765 4.21889 13.6765C4.45863 13.6765 4.68894 13.7721 4.85905 13.9428C5.02923 14.1137 5.12519 14.3458 5.12519 14.5882C5.12519 14.8307 5.02923 15.0628 4.85905 15.2336Z" stroke="white"/>
</svg>
