<svg width="16" height="18" viewBox="0 0 16 18" fill="none" xmlns="http://www.w3.org/2000/svg">
<path d="M1.00049 0.5C0.735272 0.5 0.480918 0.605357 0.293381 0.792893C0.105845 0.98043 0.000488281 1.23478 0.000488281 1.5C0.000488281 1.76522 0.105845 2.01957 0.293381 2.20711C0.480918 2.39464 0.735272 2.5 1.00049 2.5H2.22049L2.52549 3.722C2.52852 3.73607 2.53185 3.75007 2.53549 3.764L3.89349 9.194L3.00049 10.086C1.74049 11.346 2.63249 13.5 4.41449 13.5H13.0005C13.2657 13.5 13.5201 13.3946 13.7076 13.2071C13.8951 13.0196 14.0005 12.7652 14.0005 12.5C14.0005 12.2348 13.8951 11.9804 13.7076 11.7929C13.5201 11.6054 13.2657 11.5 13.0005 11.5H4.41449L5.41449 10.5H12.0005C12.1861 10.4999 12.3681 10.4481 12.526 10.3504C12.6839 10.2528 12.8115 10.1131 12.8945 9.947L15.8945 3.947C15.9707 3.79458 16.0066 3.62522 15.9989 3.45501C15.9913 3.28479 15.9402 3.11935 15.8507 2.97439C15.7611 2.82944 15.636 2.70977 15.4872 2.62674C15.3384 2.54372 15.1709 2.50009 15.0005 2.5H4.28049L3.97049 1.257C3.91632 1.04075 3.79144 0.848809 3.6157 0.711655C3.43995 0.574502 3.22342 0.500006 3.00049 0.5H1.00049ZM14.0005 16C14.0005 16.3978 13.8425 16.7794 13.5611 17.0607C13.2798 17.342 12.8983 17.5 12.5005 17.5C12.1027 17.5 11.7211 17.342 11.4398 17.0607C11.1585 16.7794 11.0005 16.3978 11.0005 16C11.0005 15.6022 11.1585 15.2206 11.4398 14.9393C11.7211 14.658 12.1027 14.5 12.5005 14.5C12.8983 14.5 13.2798 14.658 13.5611 14.9393C13.8425 15.2206 14.0005 15.6022 14.0005 16ZM4.50049 17.5C4.89831 17.5 5.27984 17.342 5.56115 17.0607C5.84245 16.7794 6.00049 16.3978 6.00049 16C6.00049 15.6022 5.84245 15.2206 5.56115 14.9393C5.27984 14.658 4.89831 14.5 4.50049 14.5C4.10266 14.5 3.72113 14.658 3.43983 14.9393C3.15852 15.2206 3.00049 15.6022 3.00049 16C3.00049 16.3978 3.15852 16.7794 3.43983 17.0607C3.72113 17.342 4.10266 17.5 4.50049 17.5Z" fill="#001F3F"/>
</svg>
