<svg width="22" height="24" viewBox="0 0 22 24" fill="none" xmlns="http://www.w3.org/2000/svg">
<path d="M3.39186 3.11982L3.3249 2.85588H3.0526H1.37505C1.10137 2.85588 0.840029 2.74886 0.648216 2.56013C0.456594 2.37159 0.35 2.11709 0.35 1.85294C0.35 1.58879 0.456594 1.33429 0.648215 1.14575C0.840029 0.957022 1.10137 0.85 1.37505 0.85H4.12513C4.12513 0.85 4.12513 0.85 4.12514 0.85C4.3551 0.850008 4.5778 0.925656 4.75792 1.06396C4.93788 1.20214 5.06475 1.39468 5.1197 1.61034C5.11972 1.6104 5.11974 1.61047 5.11975 1.61053L5.54593 3.29188L5.61284 3.55588H5.8852H20.6255C20.8012 3.55597 20.9737 3.60026 21.1265 3.68416C21.2793 3.76805 21.4071 3.8886 21.4983 4.03383C21.5895 4.17903 21.6412 4.34429 21.649 4.51395C21.6567 4.68361 21.6203 4.85264 21.5429 5.0051L17.4178 13.1227L17.4178 13.1228C17.3334 13.2889 17.2032 13.4295 17.0412 13.5281C16.8791 13.6267 16.6918 13.6793 16.5004 13.6794H7.4445H7.32924L7.23653 13.7479L7.4445 14.0294L7.23648 13.7479L7.23639 13.748L7.23608 13.7482L7.23502 13.749L7.2311 13.7519L7.21639 13.7629L7.16182 13.8038C7.11519 13.8389 7.04913 13.889 6.97093 13.9495C6.81499 14.07 6.60874 14.2331 6.41139 14.4006C6.21796 14.5647 6.01854 14.7452 5.88574 14.8986C5.82579 14.9678 5.74761 15.0666 5.70813 15.1759C5.68838 15.2307 5.65909 15.3397 5.70133 15.4634C5.75099 15.6088 5.86634 15.6846 5.96197 15.7154C6.01396 15.7322 6.0728 15.7375 6.09766 15.7398L6.0997 15.7399C6.13786 15.7434 6.18471 15.7463 6.2376 15.7488C6.34401 15.754 6.48747 15.7582 6.66083 15.7617C7.00822 15.7688 7.48528 15.7732 8.04667 15.7756C9.16994 15.7804 10.637 15.7772 12.0932 15.7708C13.5496 15.7644 14.9959 15.7548 16.0781 15.7468C16.6193 15.7428 17.0694 15.7391 17.3842 15.7365L17.7495 15.7335L17.8457 15.7326L17.8704 15.7324L17.8766 15.7324L17.877 15.7324C18.1502 15.7327 18.4109 15.8397 18.6024 16.0281C18.794 16.2166 18.9006 16.4711 18.9006 16.7353C18.9006 16.9994 18.794 17.2539 18.6024 17.4425C18.4106 17.6312 18.1493 17.7382 17.8756 17.7382H6.06945C3.92026 17.7382 2.86985 15.1954 4.37061 13.7188L5.59839 12.5121L5.7418 12.3711L5.69227 12.1763L3.82496 4.82978L3.82497 4.82977L3.82403 4.82623C3.82035 4.81234 3.81697 4.79838 3.8139 4.78435L3.81409 4.78431L3.81125 4.77312L3.39186 3.11982ZM18.9006 21.4706C18.9006 21.9141 18.7216 22.3407 18.4011 22.6561C18.0803 22.9717 17.6441 23.15 17.1881 23.15C16.7321 23.15 16.2958 22.9717 15.9751 22.6561C15.6545 22.3407 15.4755 21.9141 15.4755 21.4706C15.4755 21.027 15.6545 20.6005 15.9751 20.2851C16.2958 19.9695 16.7321 19.7912 17.1881 19.7912C17.6441 19.7912 18.0803 19.9695 18.4011 20.2851C18.7216 20.6005 18.9006 21.027 18.9006 21.4706ZM7.40069 22.6561C7.07994 22.9717 6.64372 23.15 6.18771 23.15C5.73169 23.15 5.29547 22.9717 4.97472 22.6561C4.65417 22.3407 4.47514 21.9141 4.47514 21.4706C4.47514 21.027 4.65417 20.6005 4.97472 20.2851C5.29547 19.9695 5.73169 19.7912 6.18771 19.7912C6.64372 19.7912 7.07994 19.9695 7.40069 20.2851C7.72125 20.6005 7.90028 21.027 7.90028 21.4706C7.90028 21.9141 7.72125 22.3407 7.40069 22.6561Z" stroke="#6A9AB0" stroke-width="0.7"/>
</svg>
