<svg width="22" height="23" viewBox="0 0 22 23" fill="none" xmlns="http://www.w3.org/2000/svg">
<path d="M3.39186 2.61982L3.3249 2.35588H3.0526H1.37505C1.10137 2.35588 0.840029 2.24886 0.648215 2.06013C0.456594 1.87159 0.35 1.61709 0.35 1.35294C0.35 1.08879 0.456594 0.834293 0.648215 0.645752C0.840029 0.457022 1.10137 0.35 1.37505 0.35H4.12513C4.12513 0.35 4.12513 0.35 4.12514 0.35C4.3551 0.350008 4.5778 0.425656 4.75792 0.563959C4.93786 0.702134 5.06473 0.894656 5.11969 1.11029C5.11971 1.11037 5.11973 1.11045 5.11975 1.11053L5.54593 2.79188L5.61284 3.05588H5.8852H20.6255C20.8012 3.05597 20.9737 3.10026 21.1265 3.18416C21.2793 3.26805 21.4071 3.3886 21.4983 3.53383C21.5895 3.67903 21.6412 3.84429 21.649 4.01395C21.6567 4.18358 21.6204 4.35258 21.543 4.50503C21.5429 4.50505 21.5429 4.50508 21.5429 4.5051L17.4178 12.6227L17.4178 12.6227C17.3334 12.7889 17.2032 12.9295 17.0412 13.0281C16.8791 13.1267 16.6918 13.1793 16.5004 13.1794H7.4445H7.32924L7.23653 13.2479L7.4445 13.5294L7.23648 13.2479L7.23639 13.248L7.23608 13.2482L7.23502 13.249L7.2311 13.2519L7.21639 13.2629L7.16182 13.3038C7.11519 13.3389 7.04913 13.389 6.97093 13.4495C6.81499 13.57 6.60874 13.7331 6.41139 13.9006C6.21796 14.0647 6.01854 14.2452 5.88574 14.3986C5.82579 14.4678 5.74761 14.5666 5.70813 14.6759C5.68838 14.7307 5.65909 14.8397 5.70133 14.9634C5.75099 15.1088 5.86634 15.1846 5.96197 15.2154C6.01396 15.2322 6.0728 15.2375 6.09766 15.2398L6.0997 15.2399C6.13786 15.2434 6.18471 15.2463 6.2376 15.2488C6.34401 15.254 6.48747 15.2582 6.66083 15.2617C7.00822 15.2688 7.48528 15.2732 8.04667 15.2756C9.16994 15.2804 10.637 15.2772 12.0932 15.2708C13.5496 15.2644 14.9959 15.2548 16.0781 15.2468C16.6193 15.2428 17.0694 15.2391 17.3842 15.2365L17.7495 15.2335L17.8457 15.2326L17.8704 15.2324L17.8766 15.2324L17.877 15.2324C18.1502 15.2327 18.4109 15.3397 18.6024 15.5281C18.794 15.7166 18.9006 15.9711 18.9006 16.2353C18.9006 16.4994 18.794 16.7539 18.6024 16.9425C18.4106 17.1312 18.1493 17.2382 17.8756 17.2382H6.06945C3.92026 17.2382 2.86985 14.6954 4.37061 13.2188L5.59839 12.0121L5.7418 11.8711L5.69227 11.6763L3.82496 4.32978L3.82497 4.32977L3.82403 4.32623C3.82035 4.31234 3.81697 4.29838 3.8139 4.28435L3.81409 4.28431L3.81125 4.27312L3.39186 2.61982ZM18.9006 20.9706C18.9006 21.4141 18.7216 21.8407 18.4011 22.1561C18.0803 22.4717 17.6441 22.65 17.1881 22.65C16.7321 22.65 16.2958 22.4717 15.9751 22.1561C15.6545 21.8407 15.4755 21.4141 15.4755 20.9706C15.4755 20.527 15.6545 20.1005 15.9751 19.7851C16.2958 19.4695 16.7321 19.2912 17.1881 19.2912C17.6441 19.2912 18.0803 19.4695 18.4011 19.7851C18.7216 20.1005 18.9006 20.527 18.9006 20.9706ZM7.40069 22.1561C7.07994 22.4717 6.64372 22.65 6.18771 22.65C5.73169 22.65 5.29547 22.4717 4.97472 22.1561C4.65417 21.8407 4.47514 21.4141 4.47514 20.9706C4.47514 20.527 4.65417 20.1005 4.97472 19.7851C5.29547 19.4695 5.73169 19.2912 6.18771 19.2912C6.64372 19.2912 7.07994 19.4695 7.40069 19.7851C7.72125 20.1005 7.90028 20.527 7.90028 20.9706C7.90028 21.4141 7.72125 21.8407 7.40069 22.1561Z" fill="#385069" stroke="#6A9AB0" stroke-width="0.7"/>
</svg>
