<svg width="177" height="14" viewBox="0 0 177 14" fill="none" xmlns="http://www.w3.org/2000/svg">
<path d="M0.464844 14V0.0351562H3.15039L7.88672 10.6309L12.5254 0.0351562H15.1133V14H12.7207V4.27344L8.93164 14H6.72461L2.85742 4.27344V14H0.464844ZM31.4785 14H28.8223L34.75 0.0351562H37.5332L43.5879 14H40.8047L39.2129 10.1914H34.5742L35.4629 7.94531H38.2754L36.0781 2.70117L31.4785 14ZM56.0762 0.0351562H58.8594L62.7852 6.76367L66.4766 0.0351562H69.1621L64.0254 9.11719V14H61.4375V9.11719L56.0762 0.0351562ZM83.4277 14H80.7715L86.6992 0.0351562H89.4824L95.5371 14H92.7539L91.1621 10.1914H86.5234L87.4121 7.94531H90.2246L88.0273 2.70117L83.4277 14ZM109.246 14V0.0351562H111.834L119.207 10.2109V0.0351562H121.697V14H119.109L111.736 3.60938V14H109.246ZM139.225 0.0351562V14H136.637V0.0351562H139.225ZM149.049 0.0351562L143.092 6.54883L149.674 14H146.09L140.689 7.47656V5.79688L145.885 0.0351562H149.049ZM164.096 14H161.439L167.367 0.0351562H170.15L176.205 14H173.422L171.83 10.1914H167.191L168.08 7.94531H170.893L168.695 2.70117L164.096 14Z" fill="white"/>
</svg>
