<svg width="17" height="16" viewBox="0 0 17 16" fill="none" xmlns="http://www.w3.org/2000/svg">
<path fill-rule="evenodd" clip-rule="evenodd" d="M8.63965 16C10.7243 16 12.7237 15.1571 14.1978 13.6569C15.6719 12.1566 16.5 10.1217 16.5 8C16.5 5.87827 15.6719 3.84344 14.1978 2.34315C12.7237 0.842855 10.7243 0 8.63965 0C6.55495 0 4.55564 0.842855 3.08154 2.34315C1.60744 3.84344 0.779297 5.87827 0.779297 8C0.779297 10.1217 1.60744 12.1566 3.08154 13.6569C4.55564 15.1571 6.55495 16 8.63965 16ZM7.36922 5.293C7.18391 5.11084 6.93571 5.01005 6.67809 5.01233C6.42047 5.0146 6.17404 5.11977 5.99187 5.30518C5.8097 5.49059 5.70636 5.7414 5.70413 6.0036C5.70189 6.2658 5.80092 6.5184 5.9799 6.707L7.25033 8L5.9799 9.293C5.88606 9.38525 5.8112 9.49559 5.75971 9.6176C5.70822 9.7396 5.68111 9.87082 5.67998 10.0036C5.67884 10.1364 5.7037 10.2681 5.75311 10.391C5.80251 10.5139 5.87547 10.6255 5.96772 10.7194C6.05997 10.8133 6.16968 10.8875 6.29043 10.9378C6.41118 10.9881 6.54056 11.0134 6.67102 11.0123C6.80148 11.0111 6.93041 10.9835 7.05029 10.9311C7.17016 10.8787 7.27858 10.8025 7.36922 10.707L8.63965 9.414L9.91007 10.707C10.0954 10.8892 10.3436 10.99 10.6012 10.9877C10.8588 10.9854 11.1053 10.8802 11.2874 10.6948C11.4696 10.5094 11.5729 10.2586 11.5752 9.9964C11.5774 9.7342 11.4784 9.4816 11.2994 9.293L10.029 8L11.2994 6.707C11.4784 6.5184 11.5774 6.2658 11.5752 6.0036C11.5729 5.7414 11.4696 5.49059 11.2874 5.30518C11.1053 5.11977 10.8588 5.0146 10.6012 5.01233C10.3436 5.01005 10.0954 5.11084 9.91007 5.293L8.63965 6.586L7.36922 5.293Z" fill="#EA5856"/>
</svg>
