<svg width="17" height="16" viewBox="0 0 17 16" fill="none" xmlns="http://www.w3.org/2000/svg">
<path d="M15.5 15L12.7593 12.2593M14.6358 7.5679C14.6358 8.43041 14.4659 9.28447 14.1359 10.0813C13.8058 10.8782 13.322 11.6022 12.7121 12.2121C12.1022 12.822 11.3782 13.3058 10.5813 13.6359C9.78447 13.9659 8.93041 14.1358 8.0679 14.1358C7.20539 14.1358 6.35133 13.9659 5.55447 13.6359C4.75762 13.3058 4.03358 12.822 3.42369 12.2121C2.81381 11.6022 2.33002 10.8782 1.99995 10.0813C1.66988 9.28447 1.5 8.43041 1.5 7.5679C1.5 5.82599 2.19197 4.15541 3.42369 2.92369C4.65541 1.69197 6.32599 1 8.0679 1C9.80982 1 11.4804 1.69197 12.7121 2.92369C13.9438 4.15541 14.6358 5.82599 14.6358 7.5679Z" stroke="white" stroke-width="1.2" stroke-linecap="round" stroke-linejoin="round"/>
</svg>
