<svg width="15" height="15" viewBox="0 0 15 15" fill="none" xmlns="http://www.w3.org/2000/svg">
<path d="M13.5002 13.5L9.50024 9.5M10.8336 6.16667C10.8336 6.7795 10.7129 7.38634 10.4783 7.95252C10.2438 8.51871 9.90008 9.03316 9.46674 9.4665C9.0334 9.89984 8.51895 10.2436 7.95277 10.4781C7.38658 10.7126 6.77975 10.8333 6.16691 10.8333C5.55408 10.8333 4.94724 10.7126 4.38105 10.4781C3.81487 10.2436 3.30042 9.89984 2.86708 9.4665C2.43374 9.03316 2.09 8.51871 1.85547 7.95252C1.62095 7.38634 1.50024 6.7795 1.50024 6.16667C1.50024 4.92899 1.99191 3.742 2.86708 2.86683C3.74225 1.99167 4.92923 1.5 6.16691 1.5C7.40459 1.5 8.59157 1.99167 9.46674 2.86683C10.3419 3.742 10.8336 4.92899 10.8336 6.16667Z" stroke="#001F3F" stroke-opacity="0.78" stroke-width="1.2" stroke-linecap="round" stroke-linejoin="round"/>
</svg>
